<?xml version="1.0" encoding="utf-8"?>
<!-- Generator: Adobe Illustrator 24.0.1, SVG Export Plug-In . SVG Version: 6.00 Build 0)  -->
<svg version="1.1" id="Layer_1" xmlns="http://www.w3.org/2000/svg" xmlns:xlink="http://www.w3.org/1999/xlink" x="0px" y="0px"
	 viewBox="0 0 405.3 405.3" style="enable-background:new 0 0 405.3 405.3;" xml:space="preserve">
<style type="text/css">
	.st0{fill:#FFFFFF;}
</style>
<path class="st0" d="M202.7,0C117.3,0,32,10.7,32,85.3V288c0,41.2,33.5,74.7,74.7,74.7l-32,32v10.7h47.6l42.7-42.7h80.4l42.7,42.7
	h42.7v-10.7l-32-32c41.2,0,74.7-33.5,74.7-74.7V85.3C373.3,10.7,297,0,202.7,0z M106.7,320c-17.7,0-32-14.3-32-32s14.3-32,32-32
	s32,14.3,32,32S124.4,320,106.7,320z M181.3,170.7H74.7V85.3h106.7L181.3,170.7L181.3,170.7z M298.7,320c-17.7,0-32-14.3-32-32
	s14.3-32,32-32s32,14.3,32,32S316.4,320,298.7,320z M330.7,170.7H224V85.3h106.7V170.7z"/>
</svg>
