<svg viewBox="0 0 128 128" xmlns="http://www.w3.org/2000/svg" fill="#006271"><path d="m55.0957 28.00024h6.9043a2 2 0 0 0 4 0h6.9043a2 2 0 0 0 1.98828-1.7832c1.00049-9.16742-5.27301-13.19959-8.89258-14.11432v-10.10248a2 2 0 1 0 -4 0v10.10248c-3.61957.91473-9.89307 4.9469-8.89258 14.11432a2 2 0 0 0 1.98828 1.7832zm7.79883-12h2.21387a8.17064 8.17064 0 0 1 5.88574 8h-13.98926a8.13855 8.13855 0 0 1 5.88965-8z"/><path d="m7.15272 24.36291a1.96915 1.96915 0 0 0 -1.15272 1.78723v73.8501a1.999 1.999 0 0 0 1.09862 1.78515 2.03229 2.03229 0 0 0 2.08886-.17578l12.89452-9.51074a2.001 2.001 0 0 0 .8125-1.60937v-53.78613a2.00146 2.00146 0 0 0 -.7334-1.54785l-12.89447-10.5532a1.96743 1.96743 0 0 0 -2.11391-.23941zm2.84728 6.00842 8.89453 7.27979v51.82861l-8.89453 6.56055z"/><path d="m29.284 40.71357a1.97033 1.97033 0 0 0 -1.14928 1.78667v41.5a1.99993 1.99993 0 0 0 3.17772 1.61621l7.33888-5.3457a1.99856 1.99856 0 0 0 .82227-1.61621v-30.18946a2.002 2.002 0 0 0 -.73828-1.55225l-7.33879-5.96483a1.96752 1.96752 0 0 0 -2.11252-.23443zm2.85072 5.98931 3.33887 2.71387v28.22025l-3.33882 2.4316z"/><path d="m14.44727 49.25024a2.0001 2.0001 0 0 0 -2 2v3.25a2 2 0 0 0 4 0v-3.25a2.0001 2.0001 0 0 0 -2-2z"/><path d="m14.44727 77.50024a2.0001 2.0001 0 0 0 -2 2v3.25a2 2 0 0 0 4 0v-3.25a2.0001 2.0001 0 0 0 -2-2z"/><path d="m118.7334 24.60229-12.89453 10.55322a2.00146 2.00146 0 0 0 -.7334 1.54785v53.78614a2.001 2.001 0 0 0 .8125 1.60938l12.89451 9.51072a2.08173 2.08173 0 0 0 2.08889.1758 1.999 1.999 0 0 0 1.09863-1.78516v-73.8501a1.99984 1.99984 0 0 0 -3.2666-1.54785zm-.7334 71.43799-8.89453-6.56055v-51.82861l8.89453-7.27979z"/><path d="m96.60352 40.948-7.33887 5.96484a2.002 2.002 0 0 0 -.73828 1.55225v30.18945a1.99856 1.99856 0 0 0 .82227 1.61621l7.33886 5.3457a2.03993 2.03993 0 0 0 2.085.166 1.9997 1.9997 0 0 0 1.09277-1.78223v-41.5a2.00017 2.00017 0 0 0 -3.26175-1.55222zm-.73829 39.1206-3.33886-2.4316v-28.22026l3.33887-2.71387z"/><path d="m113.55273 56.50024a2.0001 2.0001 0 0 0 2-2v-3.25a2 2 0 0 0 -4 0v3.25a2.0001 2.0001 0 0 0 2 2z"/><path d="m113.55273 84.75024a2.0001 2.0001 0 0 0 2-2v-3.25a2 2 0 0 0 -4 0v3.25a2.0001 2.0001 0 0 0 2 2z"/><path d="m73 96.00024a2 2 0 0 0 0-4h-18a2 2 0 1 0 0 4z"/><path d="m41 104.00024a2.0001 2.0001 0 0 0 2 2h42a2 2 0 0 0 0-4h-42a2.0001 2.0001 0 0 0 -2 2z"/><path d="m93 112.00024h-58a2 2 0 0 0 0 4h58a2 2 0 0 0 0-4z"/><path d="m44.21967 85.5896-43.55267 38.9194a2.00015 2.00015 0 1 0 2.666 2.98242l43.19745-38.602a6.00079 6.00079 0 0 1 -2.31078-3.29982z"/><path d="m83.78033 85.5896a6.00079 6.00079 0 0 1 -2.31079 3.29987l43.19745 38.602a2.00015 2.00015 0 0 0 2.666-2.98242z"/><path d="m44.21967 42.41088a6.00079 6.00079 0 0 1 2.31079-3.29988l-43.19746-38.602a2.00015 2.00015 0 0 0 -2.666 2.98245z"/><path d="m83.78033 42.41088 43.55267-38.91943a2.00015 2.00015 0 0 0 -2.666-2.98245l-43.19746 38.602a6.00079 6.00079 0 0 1 2.31079 3.29988z"/><path d="m50 86.00024h28a2.0001 2.0001 0 0 0 2-2v-40a2.0001 2.0001 0 0 0 -2-2h-28a2.0001 2.0001 0 0 0 -2 2v40a2.0001 2.0001 0 0 0 2 2zm2-40h24v36h-24z"/><path d="m70 62.00024h-2a2 2 0 0 0 0 4h2a2 2 0 0 0 0-4z"/></svg>