
<svg version="1.1" id="Layer_1" xmlns="http://www.w3.org/2000/svg" xmlns:xlink="http://www.w3.org/1999/xlink" x="0px" y="0px"
	 viewBox="0 0 100 100" enable-background="new 0 0 100 100" xml:space="preserve">
<g>
	<polygon fill="#006271" points="100,90.9 -0.2,90.9 4.3,87.4 95.5,87.4 	"/>
	<rect x="80.3" y="82.6" fill="#006271" width="6.7" height="3.1"/>
	<rect x="66.7" y="82.6" fill="#006271" width="6.7" height="3.1"/>
	<rect x="53.2" y="82.6" fill="#006271" width="6.7" height="3.1"/>
	<rect x="39.7" y="82.6" fill="#006271" width="6.7" height="3.1"/>
	<rect x="26.2" y="82.6" fill="#006271" width="6.7" height="3.1"/>
	<rect x="12.6" y="82.6" fill="#006271" width="6.7" height="3.1"/>
	<path fill="#006271" d="M27.4,15.4v40.9L10.9,79.9h72.3L66.8,56.3V15.4 M37.4,59.8l13.2,14.8h-5.1L32.3,59.8H37.4z M45.8,59.8
		L59,74.7h-5.1L40.7,59.8H45.8z M54.1,59.8l13.2,14.8h-5.1L49,59.8H54.1z M27.8,64.1l2.2-3.3l12.3,13.8h-5.1L27.8,64.1z M34,74.7
		h-5.1l-4.7-5.3l2.2-3.2L34,74.7z M22.7,71.4l2.9,3.2h-5.2L22.7,71.4z M70.6,74.7L57.4,59.8h6l10.3,14.8H70.6z M62.1,10.2v44.4h-9.4
		l-0.1-0.1l-0.1,0.1h-8.1l-0.1-0.1l-0.1,0.1h-8.1l-0.1-0.1l-0.1,0.1H32V10.2 M25.5,9.1h43v6.3h-43V9.1z M45.6,9.7h2.8v44.9h-2.8V9.7
		z"/>
</g>
</svg>
