<?xml version="1.0" encoding="utf-8"?>
<!-- Generator: Adobe Illustrator 24.0.1, SVG Export Plug-In . SVG Version: 6.00 Build 0)  -->
<svg version="1.1" id="Layer_1" xmlns="http://www.w3.org/2000/svg" xmlns:xlink="http://www.w3.org/1999/xlink" x="0px" y="0px"
	 viewBox="0 0 512 512" style="enable-background:new 0 0 512 512;" xml:space="preserve">
<style type="text/css">
	.st0{fill:#1A667A;}
</style>
<g id="Medal">
	<path class="st0" d="M456.2,461.3l-57.8-152c5.7-3.4,10.7-7.9,14.6-13.3c8.5-11.7,11.4-26.6,7.8-40.7c-3.1-12.4,1.3-25.4,11.1-33.5
		c20.8-17.1,23.9-47.8,6.8-68.7c-2.1-2.5-4.4-4.8-6.9-6.9c-9.8-8.1-14.1-21.2-11-33.5c3.6-14,0.7-28.9-7.8-40.6
		c-8.7-12-22.4-19.5-37.2-20.5c-12.8-0.9-24.1-8.9-29.1-20.8C341.2,17.3,330,7,316.1,2.5c-14.1-4.6-29.5-2.8-42.1,5
		c-11.1,6.8-25,6.8-36.1,0c-12.6-7.8-28-9.6-42.1-5C182,7,170.8,17.3,165.3,30.8c-5,11.9-16.3,19.9-29.2,20.8
		c-14.8,1-28.4,8.5-37.1,20.5c-8.5,11.7-11.4,26.6-7.8,40.7c3.1,12.4-1.3,25.4-11.1,33.5c-20.8,17.1-23.9,47.8-6.8,68.7
		c2.1,2.5,4.4,4.8,6.9,6.9c9.8,8.1,14.1,21.2,11,33.5c-3.6,14-0.7,28.9,7.8,40.6c3.9,5.4,8.9,9.9,14.6,13.3l-57.8,152
		c-1.6,4.1,0.5,8.7,4.6,10.3c1.8,0.7,3.8,0.7,5.6,0.1l63-22.6l32,58.8c1.4,2.6,4.1,4.2,7,4.2c0.2,0,0.4,0,0.5,0
		c3.1-0.2,5.8-2.2,6.9-5.1l54.1-142.3c2.9-1.1,5.7-2.5,8.4-4.1c11.1-6.8,25-6.8,36,0l0,0c2.6,1.6,5.4,2.9,8.3,4l54.2,142.3
		c1.1,2.9,3.8,4.9,6.9,5.1c0.2,0,0.4,0,0.5,0c2.9,0,5.6-1.6,7-4.2l32-58.8l63,22.6c4.2,1.5,8.7-0.7,10.2-4.8
		C456.9,465.1,456.9,463.1,456.2,461.3L456.2,461.3z M166.7,484.9l-27-49.5c-1.9-3.5-6-5-9.7-3.7l-53.1,19.1l51.6-135.5
		c2.5,0.6,5.1,1,7.7,1.2c12.8,0.9,24.1,8.9,29.1,20.8c5.5,13.5,16.7,23.8,30.6,28.3c4.9,1.6,10.1,2.4,15.3,2.4L166.7,484.9z
		 M229.6,346.9c-8.6,5.3-19.1,6.6-28.7,3.4c-9.4-3-17-10-20.8-19.2c-7.3-17.5-23.9-29.4-42.9-30.7c-10.1-0.6-19.3-5.7-25.2-13.9
		c-5.7-7.9-7.7-17.9-5.2-27.4c4.6-18.4-1.9-37.7-16.5-49.8c-14-11.5-16.1-32.1-4.7-46.2c1.4-1.7,3-3.3,4.7-4.7
		c14.6-12.1,20.9-31.4,16.4-49.8c-2.4-9.4-0.5-19.4,5.3-27.3c6-8.2,15.2-13.3,25.3-13.9c18.9-1.3,35.5-13.2,42.8-30.7
		c3.8-9.1,11.3-16.1,20.8-19.2c9.6-3.1,20.1-1.9,28.7,3.4c16.2,9.9,36.6,9.9,52.9,0c8.6-5.3,19.1-6.6,28.7-3.4
		c9.4,3,17,10,20.8,19.2c7.3,17.5,23.9,29.4,42.9,30.7c10.1,0.6,19.3,5.7,25.2,13.9c5.7,7.9,7.7,17.9,5.2,27.4
		c-4.6,18.4,1.9,37.7,16.5,49.8c14,11.5,16.1,32.1,4.7,46.2c-1.4,1.7-3,3.3-4.7,4.7c-14.6,12.1-20.9,31.4-16.4,49.8
		c2.4,9.4,0.5,19.4-5.3,27.3c-6,8.2-15.2,13.3-25.3,13.9c-18.9,1.3-35.5,13.2-42.8,30.7c-3.8,9.1-11.3,16.1-20.8,19.2
		c-9.6,3.2-20.1,1.9-28.7-3.4C266.2,337,245.8,337,229.6,346.9z M382,431.7c-3.7-1.3-7.8,0.2-9.7,3.7l-27,49.5L300.8,368
		c5.2,0,10.4-0.9,15.3-2.5c13.9-4.5,25.1-14.8,30.6-28.3c5-11.9,16.3-19.9,29.2-20.8c2.6-0.2,5.1-0.6,7.7-1.2l51.5,135.5L382,431.7z
		"/>
	<path class="st0" d="M376,184c0-66.3-53.7-120-120-120s-120,53.7-120,120s53.7,120,120,120C322.2,303.9,375.9,250.2,376,184z
		 M256,288c-57.4,0-104-46.6-104-104S198.6,80,256,80s104,46.6,104,104C359.9,241.4,313.4,287.9,256,288z"/>
	<path class="st0" d="M319.6,157.5l-39-5.7l-17.4-35.3c-2.3-4-7.4-5.3-11.4-2.9c-1.2,0.7-2.2,1.7-2.9,2.9l-17.4,35.3l-39,5.7
		c-4.4,0.6-7.4,4.7-6.8,9.1c0.3,1.7,1.1,3.4,2.3,4.6l28.2,27.5l-6.7,38.8c-0.7,4.4,2.2,8.5,6.5,9.2c1.7,0.3,3.5,0,5.1-0.8l34.9-18.3
		l34.9,18.3c3.9,2.1,8.7,0.5,10.8-3.4c0.8-1.6,1.1-3.3,0.8-5.1l-6.7-38.8l28.2-27.5c3.2-3.1,3.2-8.1,0.1-11.3
		C323,158.5,321.4,157.7,319.6,157.5L319.6,157.5z M281.6,190.1c-1.9,1.8-2.7,4.5-2.3,7.1l4.6,27l-24.3-12.8c-2.3-1.2-5.1-1.2-7.4,0
		L228,224.2l4.6-27c0.4-2.6-0.4-5.2-2.3-7.1L210.7,171l27.1-3.9c2.6-0.4,4.9-2,6-4.4l12.1-24.6l12.1,24.6c1.2,2.4,3.4,4,6,4.4
		l27.1,3.9L281.6,190.1z"/>
</g>
</svg>
